# xmcd
# 
# Track frame offsets:
#     150
#     16560
#     29692
#     43523
#     54674
#     66524
#     78890
#     90903
#     101389
#     116911
#     127300
#     139202
#     155070
#     170347
#     184879
# 
# Disc length: 2673
# 
# Revision: 0
# Processed by: cddbd v1.5.2PL0 Copyright (c) Steve Scherf et al.
# Submitted via: fre:ac v1.0.31
# 
DISCID=cc0a6f0f
DTITLE=ยอดรัก สลักใจ - ดีที่สุด 2
DYEAR=0
DGENRE=Country
TTITLE0=เอาแน่
TTITLE1=สามสิบยังแจ๋ว
TTITLE2=แผลรักสลักใจ
TTITLE3=ชวนน้องแต่งงาน
TTITLE4=รักสะท้านดินสะเทือน
TTITLE5=ด่วนแม่กลอง
TTITLE6=ขาดเงินขาดรัก
TTITLE7=มอเตอร์ไซค์ทำหล่น
TTITLE8=เด็กเอ๊าะ ๆ
TTITLE9=ใครลืมใครก่อน
TTITLE10=ทุยเพื่อนรัก
TTITLE11=ทหารเรือมาแล้ว
TTITLE12=มนต์รักเสนา
TTITLE13=แผลที่หัวใจ
TTITLE14=ลิ้นมหาเสน่ห์
EXTD=
EXTT0=
EXTT1=
EXTT2=
EXTT3=
EXTT4=
EXTT5=
EXTT6=
EXTT7=
EXTT8=
EXTT9=
EXTT10=
EXTT11=
EXTT12=
EXTT13=
EXTT14=
PLAYORDER=
